<svg version="1.1" xmlns="http://www.w3.org/2000/svg" xmlns:xlink="http://www.w3.org/1999/xlink" width="559.91698" height="411.57607" viewBox="0,0,559.91698,411.57607"><g transform="translate(19.75976,20.45045)"><g data-paper-data="{&quot;isPaintingLayer&quot;:true}" fill-rule="nonzero" stroke-linejoin="miter" stroke-miterlimit="10" stroke-dasharray="" stroke-dashoffset="0" style="mix-blend-mode: normal"><path d="M-19.75976,380.45045v-400.9009h519.51952v400.9009z" fill="#3ad05d" stroke="none" stroke-width="0" stroke-linecap="butt"/><path d="M90.46718,377.87562c0,0 34.07888,-242.90739 34.3077,-289.01575c0.08212,-16.54776 8.23603,-24.92768 8.23603,-24.92768c0,0 5.72448,-8.9716 19.78262,-9.14431c5.16711,-0.06348 50.86467,8.59226 63.11356,31.20581c13.5748,25.0614 47.81638,24.81053 64.66466,26.71129c32.80872,3.70135 34.42377,13.12425 72.66322,18.14799c48.69143,6.39688 55.6815,35.7971 68.94743,94.81814c2.86715,12.75616 11.83354,26.43272 18.87301,37.32228c10.3553,16.01892 85.85181,25.39368 85.85181,25.39368" fill="none" stroke="#d88c36" stroke-width="26.5" stroke-linecap="round"/><path d="M90.46718,377.87562c0,0 1.6657,-11.87275 4.26305,-30.86677c9.15096,-66.91952 29.86642,-222.23439 30.04465,-258.14898c0.08212,-16.54776 8.23603,-24.92768 8.23603,-24.92768c0,0 5.72448,-8.9716 19.78262,-9.14431c5.16711,-0.06348 50.86467,8.59226 63.11356,31.20581c13.5748,25.0614 47.81638,24.81053 64.66466,26.71129c32.80872,3.70135 34.42377,13.12425 72.66322,18.14799c48.69143,6.39688 55.6815,35.7971 68.94743,94.81814c2.86715,12.75616 11.83354,26.43272 18.87301,37.32228c10.3553,16.01892 85.85181,25.39368 85.85181,25.39368" fill="none" stroke="#ffffff" stroke-width="3" stroke-linecap="round"/></g></g></svg>