<svg version="1.1" xmlns="http://www.w3.org/2000/svg" xmlns:xlink="http://www.w3.org/1999/xlink" width="95.93022" height="40.08333" viewBox="0,0,95.93022,40.08333"><g transform="translate(-193.54168,-159.95836)"><g data-paper-data="{&quot;isPaintingLayer&quot;:true}" fill-rule="nonzero" stroke-linejoin="miter" stroke-miterlimit="10" stroke-dasharray="" stroke-dashoffset="0" style="mix-blend-mode: normal"><path d="M239.63785,195.25108l0.48161,-31.00105l47.32823,6.9833l-0.2408,17.27526z" fill="#dfe88e" stroke="#001e35" stroke-width="4" stroke-linecap="butt"/><path d="M221.95834,198.04169v-36.08333h36.08333v36.08333z" fill="#d4b981" stroke="#4e4430" stroke-width="4" stroke-linecap="butt"/><path d="M261.8,167.1799c0,0 0.99751,-4.24385 2.46575,-3.62441c4.24742,1.79195 0.02675,27.64223 2.77802,30.76013c2.13372,2.41805 3.35623,-3.2066 3.35623,-3.2066" fill="none" stroke="#92d0ff" stroke-width="4" stroke-linecap="round"/><path d="M273.6,168.828c0,0 0.90228,-3.83872 2.23036,-3.27842c3.84195,1.62088 0.02419,25.00342 2.51282,27.82367c1.93003,2.18722 3.03583,-2.90048 3.03583,-2.90048" fill="none" stroke="#0090ff" stroke-width="4" stroke-linecap="round"/><path d="M219.16668,179.81252c0,9.76854 -5.51249,17.6875 -12.3125,17.6875c-6.80001,0 -12.3125,-7.91896 -12.3125,-17.6875c0,-9.76854 5.51249,-17.6875 12.3125,-17.6875c6.80001,0 12.3125,7.91896 12.3125,17.6875z" fill="#ffca66" stroke="#000000" stroke-width="2" stroke-linecap="butt"/></g></g></svg>