<svg version="1.1" xmlns="http://www.w3.org/2000/svg" xmlns:xlink="http://www.w3.org/1999/xlink" width="112.82557" height="66.08333" viewBox="0,0,112.82557,66.08333"><g transform="translate(-177.92444,-146.95835)"><g data-paper-data="{&quot;isPaintingLayer&quot;:true}" fill-rule="nonzero" stroke-linecap="butt" stroke-linejoin="miter" stroke-miterlimit="10" stroke-dasharray="" stroke-dashoffset="0" style="mix-blend-mode: normal"><path d="M209.13139,201.77029c0,-13.44212 -0.34611,-36.47862 -0.34611,-43.60976c0,-5.30245 5.61299,-9.20218 10.18859,-9.20218c7.2431,0 29.19638,0 42.22532,0c5.93309,0 10.01553,5.3219 10.01553,9.02912c0,6.92024 0,30.11954 0,43.4367c0,5.72048 -4.31831,9.61751 -8.28498,9.61751c-7.46254,0 -31.15268,0 -44.12892,0c-4.60008,0 -9.66943,-3.73329 -9.66943,-9.2714z" fill="#999999" stroke="#353535" stroke-width="4"/><path d="M230.50001,188.95002v-17.5h58.25v17.5z" fill="#8e8e8e" stroke="#353535" stroke-width="4"/><path d="M221.95835,198.04169v-36.08333h36.08333v36.08333z" fill="#8e8e8e" stroke="#353535" stroke-width="4"/><path d="M216.99762,181.28755c0,15.10332 -8.52296,27.34698 -19.03659,27.34698c-10.51362,0 -19.03659,-12.24365 -19.03659,-27.34698c0,-15.10332 8.52296,-27.34698 19.03659,-27.34698c10.51362,0 19.03659,12.24365 19.03659,27.34698z" fill="#ffca66" stroke="#000000" stroke-width="2"/></g></g></svg>