<svg version="1.1" xmlns="http://www.w3.org/2000/svg" xmlns:xlink="http://www.w3.org/1999/xlink" width="462.94004" height="349.58674" viewBox="0,0,462.94004,349.58674"><g transform="translate(-77.21717,-41.53888)"><g data-paper-data="{&quot;isPaintingLayer&quot;:true}" fill="none" fill-rule="nonzero" stroke="#d88c36" stroke-width="26.5" stroke-linecap="round" stroke-linejoin="miter" stroke-miterlimit="10" stroke-dasharray="" stroke-dashoffset="0" style="mix-blend-mode: normal"><path d="M90.46718,377.87562c0,0 34.07888,-242.90739 34.3077,-289.01575c0.08212,-16.54776 8.23603,-24.92768 8.23603,-24.92768c0,0 5.72448,-8.9716 19.78262,-9.14431c5.16711,-0.06348 50.86467,8.59226 63.11356,31.20581c13.5748,25.0614 47.81638,24.81053 64.66466,26.71129c32.80872,3.70135 34.42377,13.12425 72.66322,18.14799c48.69143,6.39688 55.6815,35.7971 68.94743,94.81814c2.86715,12.75616 11.83354,26.43272 18.87301,37.32228c10.3553,16.01892 85.85181,25.39368 85.85181,25.39368"/></g></g></svg>